<?xml version="1.0" encoding="UTF-8"?>
<svg id="Capa_2" data-name="Capa 2" xmlns="http://www.w3.org/2000/svg" viewBox="0 0 69.02 14.57">
  <defs>
    <style>
      .cls-1 {
        fill: #fff;
      }
    </style>
  </defs>
  <g id="Capa_1-2" data-name="Capa 1">
    <path class="cls-1" d="M10.43.14v4.94c0,.07.09.1.13.04.3-.47.65-.81,1.05-1.01.82-.42,1.83-.36,2.2.59.09.24.14.61.14,1.11,0,1.14,0,2.64.01,4.51,0,.58.25.85.76.81.1,0,.19.07.2.17v.04c.01.08-.05.15-.13.15h-2.71c-.08,0-.14-.07-.12-.15l.02-.08c.02-.08.09-.13.17-.13.88.05.76-.69.76-1.36,0-.63,0-1.98,0-4.06,0-.85-.56-1.36-1.39-.9-.38.21-.72.51-1.02.9-.05.06-.07.14-.07.22v4.72c0,.2.14.37.33.41l.52.12c.07.01.11.08.1.16v.04c-.02.07-.09.12-.16.12h-2.67c-.09.02-.16-.06-.16-.14h0c0-.09.07-.17.16-.19l.48-.1c.14-.03.25-.14.27-.28.06-.35.09-.6.09-.74,0-4.1,0-6.85,0-8.25,0-.18-.02-.4-.05-.66,0-.06-.06-.11-.13-.1l-.6.05c-.05,0-.1-.04-.11-.09v-.05c0-.06.02-.11.08-.14L10.26.03c.08-.04.17.02.17.11h0Z"/>
    <path class="cls-1" d="M46.28,0c.07-.03.14.02.14.09v10.51c0,.22.15.41.36.45l.49.11c.07.01.11.07.11.14v.07c0,.06-.05.12-.12.12h-2.69c-.09,0-.17-.07-.17-.16h0c0-.09.06-.17.14-.18l.54-.1c.07-.01.13-.07.15-.14.1-.32.15-.64.15-.97,0-.81,0-3.72,0-8.73,0-.11-.09-.19-.2-.18l-.6.05s-.08-.03-.08-.07v-.05c0-.08.05-.16.13-.2L46.28,0h0Z"/>
    <path class="cls-1" d="M68.92.75c0,.05,0,.1-.02.14-.01.05-.06.08-.11.08-1.01-.01-1.6-.02-1.76,0-5.34.4-10.45.42-17.79.51-.04,0-.08,0-.12-.02-.34-.15-.51-.38-.51-.7s.17-.55.51-.69c.04-.02.08-.03.12-.03,7.34.09,12.46.1,17.79.5.16.01.74,0,1.76,0,.05,0,.1.03.11.08.01.04.02.09.02.14h0Z"/>
    <path class="cls-1" d="M4.05.3c2.45,0,3.7,0,3.76,0,.04,0,.07.03.07.07l.21,2.41c0,.09-.07.17-.17.16h-.02c-.1-.01-.18-.09-.18-.19-.03-.58-.13-1.08-.3-1.5-.11-.25-.35-.41-.62-.41h-2.04c-.07,0-.12.05-.12.12.01,2.78.02,5.72,0,8.83,0,.37.02.66.08.86.05.2.21.36.42.4.17.04.45.07.83.1.05,0,.09.02.13.05.03.03.05.07.06.12,0,.09-.06.17-.14.17-.16,0-.82,0-1.97,0-1.16,0-1.81,0-1.97,0-.09,0-.16-.08-.14-.17,0-.05.02-.09.06-.12.03-.03.08-.04.13-.05.38-.03.65-.06.83-.1.2-.04.36-.2.41-.4.05-.2.08-.49.08-.86-.01-3.11,0-6.05,0-8.83,0-.06-.05-.12-.12-.12H1.29c-.27,0-.51.17-.62.41-.18.42-.28.92-.3,1.5,0,.1-.08.18-.18.19h-.02c-.09.01-.17-.06-.17-.16L.21.37s.03-.07.07-.07c.06,0,1.32,0,3.77,0h0Z"/>
    <path class="cls-1" d="M27.82,11.5h-3.91c-.1,0-.17-.08-.17-.17v-.05c0-.05.04-.1.09-.1,1.14-.14,1.42-.07,1.41-1.38-.01-1.29-.01-3.94,0-7.96,0-.31-.03-.55-.09-.74-.06-.21-.25-.37-.47-.39l-.84-.09c-.08,0-.13-.08-.12-.15h0c.02-.1.1-.16.19-.16.82,0,2.24,0,4.27,0,.23,0,.55.07.97.2,1.25.39,1.88,1.27,1.87,2.65-.03,1.77-1.35,2.71-3,2.79-.06,0-.07.08-.02.1.5.27.89.68,1.15,1.22.06.12.55,1.1,1.48,2.96.35.7.7.94,1.45.95.08,0,.15.07.16.15h0c0,.09-.06.16-.15.16-.62,0-1.06.02-1.31.02-.59.02-1-.22-1.25-.71-1.24-2.47-2.03-4.04-2.36-4.69-.03-.06-.09-.09-.15-.09h-.5s-.06.03-.06.06v4.45c0,.22.16.42.38.47l1.05.23s.08.06.07.1v.05c-.02.06-.08.11-.15.11M26.51,5.49c1.41.08,2.95-.35,3.2-1.96.24-1.52-.55-2.71-2.17-2.69-.37,0-.7.07-.99.21-.05.02-.09.08-.09.14v4.26s.02.05.04.05h0Z"/>
    <path class="cls-1" d="M16.53,7.42c-.05,0-.1.04-.1.1,0,1.13.22,3.05,1.49,3.35.2.05.45,0,.76-.17.59-.31.97-1.41,1.08-2.02.02-.11.11-.18.22-.18h.05c.07,0,.12.06.12.13-.15,1.47-.81,3.25-2.53,3.15-2.22-.14-2.39-3.3-2.2-4.9.13-1.04.62-2.3,1.55-2.78.76-.39,1.78-.27,2.35.43.62.77.8,1.79.81,2.77,0,.07-.06.13-.13.13h-3.46M16.56,6.85l2.43.03s.05-.02.05-.04v-.07c.02-1.29-.52-2.34-1.2-2.35h-.06c-.68,0-1.24,1.03-1.26,2.32v.07s.02.05.04.05h0Z"/>
    <path class="cls-1" d="M33.47,7.51c0,1.13.22,3.05,1.48,3.35.2.05.46,0,.76-.17.59-.31.97-1.41,1.08-2.02.02-.11.11-.18.22-.18h.05c.07,0,.12.06.12.13-.15,1.47-.81,3.25-2.54,3.15-2.22-.14-2.39-3.31-2.19-4.91.13-1.04.62-2.3,1.56-2.78.76-.39,1.79-.27,2.35.43.62.77.79,1.79.81,2.77,0,.07-.06.13-.13.13h-3.46c-.05,0-.1.04-.1.1M33.6,6.86l2.4.04s.05-.02.05-.04v-.19c.02-1.22-.5-2.21-1.15-2.22h-.12c-.66-.01-1.2.97-1.22,2.18v.19s.02.05.04.05h0Z"/>
    <path class="cls-1" d="M39.68,10.84s-.09-.02-.09.03c0,.87,0,1.75.01,2.63,0,.54.26.78.77.73.1,0,.18.07.18.17v.06c0,.06-.05.11-.11.11h-2.79c-.07,0-.13-.06-.13-.13v-.05c0-.08.07-.15.15-.14.55.04.82-.23.83-.82,0-3.06,0-5.85,0-8.37,0-.09-.07-.17-.16-.19-.11-.02-.26.02-.46.12-.09.04-.19-.02-.19-.12v-.1c0-.07.04-.13.1-.15l1.52-.71c.13-.06.27.03.27.17v1.23c0,.06.08.08.11.03.58-1.03,1.88-2.04,3.06-1.16.7.52.95,1.57,1.03,2.39.15,1.54-.07,3.53-1.2,4.67-.87.88-2.28.65-2.91-.39M39.6,6.18c-.01.27-.01,1.13,0,2.59,0,.81.18,1.76.88,2.24.27.18.53.25.81.21,1.69-.26,1.53-4.86.91-6.06-.67-1.29-2.15.02-2.53.75-.04.08-.07.18-.07.27h0Z"/>
    <path class="cls-1" d="M55.66,10.54c0-.05-.06-.07-.09-.03-.74.97-1.61,1.7-2.83,1.03-.72-.39-1.1-1.3-1.22-2.08-.28-1.82-.05-5.14,2.3-5.57.61-.11,1.26.03,1.97.43.08.05.19.03.26-.03l.41-.36c.06-.06.17-.04.21.03.01.02.02.05.02.09.01.23.02,3.3.01,9.22,0,.68.27,1,.81.97.09,0,.16.07.16.15v.05c0,.07-.05.12-.12.12h-2.74c-.07,0-.13-.06-.13-.13v-.06c0-.09.08-.16.17-.15.53.07.81-.21.81-.84,0-.74,0-1.69,0-2.85M55.66,9.66c0-.85,0-2.21,0-4.07,0-.55-.69-1.14-1.2-1.17-2.1-.12-1.89,3.59-1.74,4.79.15,1.2.96,2.33,2.16,1.47.3-.22.55-.5.74-.84.03-.05.05-.12.05-.18h0Z"/>
    <path class="cls-1" d="M65.42,7.42c-.05,0-.1.04-.1.1,0,1.13.22,3.05,1.48,3.35.2.05.46,0,.76-.17.59-.31.97-1.41,1.08-2.02.02-.11.11-.18.22-.18h.05c.07,0,.12.06.12.13-.15,1.47-.81,3.25-2.54,3.15-2.22-.14-2.39-3.31-2.19-4.91.13-1.04.62-2.3,1.55-2.78.76-.39,1.79-.27,2.35.43.62.77.79,1.79.81,2.77,0,.07-.06.13-.13.13h-3.46M65.44,6.86l2.42.04s.05-.02.05-.05v-.1c.02-1.27-.49-2.31-1.16-2.32h-.12c-.66-.01-1.22,1.01-1.24,2.28v.1s.02.05.04.05h0Z"/>
    <path class="cls-1" d="M48.07,11.51c-.07,0-.13-.06-.13-.13v-.06c0-.07.05-.13.12-.15l.45-.09c.23-.04.4-.24.4-.48v-5.56c0-.16-.17-.27-.32-.2l-.32.15c-.08.04-.17,0-.2-.07l-.03-.07c-.03-.07,0-.16.07-.2l1.63-.76c.1-.04.21.03.21.13,0,2.78,0,4.91.01,6.39,0,.22.06.41.19.57.02.03.05.05.09.06l.59.13c.05.01.09.06.09.11v.04c0,.09-.08.16-.17.16h-2.68Z"/>
    <path class="cls-1" d="M61.84,10.54c0-.05-.07-.08-.1-.03-.55.77-1.25,1.38-2.25,1.24-.92-.13-1.16-1.04-1.15-1.84.02-2.08.01-3.72-.01-4.92,0-.16-.15-.29-.31-.27l-.47.05c-.08,0-.15-.06-.15-.14h0c0-.11.08-.19.18-.22.62-.17,1.55-.48,1.69-.44.08.02.12.08.12.16,0,3.4.01,5.3.04,5.7.01.18.02.31.02.4.02.6.52.88,1.07.68.48-.17.9-.51,1.25-1.03.04-.06.07-.14.07-.22,0-1.61,0-3.04,0-4.29,0-.16-.01-.32-.04-.46-.03-.17-.15-.24-.34-.22-.18.02-.33.04-.45.04-.05,0-.09-.04-.09-.09-.01-.14.05-.22.19-.26.53-.16,1.06-.3,1.57-.43.12-.03.24.06.24.19v6.47c0,.08.06.14.14.13l.53-.05c.07,0,.14.04.16.11.02.07-.02.14-.08.17l-1.59.74c-.1.04-.2-.02-.2-.13v-1.08h0Z"/>
  </g>
</svg>